STARTFONT 2.1
COMMENT converted Oberon font (using FontToBDF by R.Crelier 10.1.91)
FONT Syntax16i.Scn.Fnt
SIZE 16 75 75
FONTBOUNDINGBOX  15 19 0 -5
STARTPROPERTIES 3
FONT_ASCENT 14
FONT_DESCENT 5
DEFAULT_CHAR 0
ENDPROPERTIES
CHARS 121
STARTCHAR c0
ENCODING -1 0
SWIDTH 0 0
DWIDTH 0 0
BBX 0 0 0 0
BITMAP
ENDCHAR
STARTCHAR c9
ENCODING -1 9
SWIDTH 516 0
DWIDTH 16 0
BBX 0 0 0 0
BITMAP
ENDCHAR
STARTCHAR c32
ENCODING -1 32
SWIDTH 129 0
DWIDTH 4 0
BBX 0 0 0 0
BITMAP
ENDCHAR
STARTCHAR c33
ENCODING -1 33
SWIDTH 129 0
DWIDTH 4 0
BBX 3 13 1 0
BITMAP
20
20
20
20
40
40
40
40
40
00
00
80
80
ENDCHAR
STARTCHAR c34
ENCODING -1 34
SWIDTH 193 0
DWIDTH 6 0
BBX 4 4 2 9
BITMAP
50
50
A0
A0
ENDCHAR
STARTCHAR c35
ENCODING -1 35
SWIDTH 290 0
DWIDTH 9 0
BBX 8 13 0 0
BITMAP
12
12
12
12
7F
24
24
24
FE
48
48
48
48
ENDCHAR
STARTCHAR c36
ENCODING -1 36
SWIDTH 258 0
DWIDTH 8 0
BBX 8 16 0 -2
BITMAP
04
0F
14
24
24
28
18
18
18
14
24
24
28
F0
20
20
ENDCHAR
STARTCHAR c37
ENCODING -1 37
SWIDTH 354 0
DWIDTH 11 0
BBX 11 13 0 0
BITMAP
1820
2440
4480
4480
4900
3200
0400
0980
1240
2440
2440
4480
8300
ENDCHAR
STARTCHAR c38
ENCODING -1 38
SWIDTH 322 0
DWIDTH 10 0
BBX 9 13 0 0
BITMAP
0E00
1100
1100
1200
1400
0880
1480
2480
4500
8300
8200
8D00
7180
ENDCHAR
STARTCHAR c39
ENCODING -1 39
SWIDTH 129 0
DWIDTH 4 0
BBX 2 4 2 9
BITMAP
40
40
80
80
ENDCHAR
STARTCHAR c40
ENCODING -1 40
SWIDTH 193 0
DWIDTH 6 0
BBX 5 16 1 -3
BITMAP
08
10
20
20
40
40
40
80
80
80
80
80
80
40
40
20
ENDCHAR
STARTCHAR c41
ENCODING -1 41
SWIDTH 193 0
DWIDTH 6 0
BBX 5 16 0 -3
BITMAP
20
10
10
08
08
08
08
08
08
10
10
10
20
20
40
80
ENDCHAR
STARTCHAR c42
ENCODING -1 42
SWIDTH 322 0
DWIDTH 10 0
BBX 8 9 1 0
BITMAP
21
22
14
18
FF
18
28
44
84
ENDCHAR
STARTCHAR c43
ENCODING -1 43
SWIDTH 322 0
DWIDTH 10 0
BBX 9 9 1 0
BITMAP
0400
0400
0400
0800
FF80
0800
1000
1000
1000
ENDCHAR
STARTCHAR c44
ENCODING -1 44
SWIDTH 129 0
DWIDTH 4 0
BBX 2 5 0 -3
BITMAP
40
40
40
80
80
ENDCHAR
STARTCHAR c45
ENCODING -1 45
SWIDTH 354 0
DWIDTH 11 0
BBX 9 1 1 4
BITMAP
FF80
ENDCHAR
STARTCHAR c46
ENCODING -1 46
SWIDTH 129 0
DWIDTH 4 0
BBX 1 2 1 0
BITMAP
80
80
ENDCHAR
STARTCHAR c47
ENCODING -1 47
SWIDTH 258 0
DWIDTH 8 0
BBX 7 12 1 0
BITMAP
02
02
04
08
08
10
10
20
20
40
80
80
ENDCHAR
STARTCHAR c48
ENCODING -1 48
SWIDTH 290 0
DWIDTH 9 0
BBX 9 13 0 0
BITMAP
0700
0880
1080
2080
2080
4100
4100
4100
8200
8200
8400
8800
7000
ENDCHAR
STARTCHAR c49
ENCODING -1 49
SWIDTH 290 0
DWIDTH 9 0
BBX 5 13 1 0
BITMAP
08
18
68
88
10
10
10
10
10
20
20
20
20
ENDCHAR
STARTCHAR c50
ENCODING -1 50
SWIDTH 290 0
DWIDTH 9 0
BBX 8 13 0 0
BITMAP
1E
61
01
01
02
02
04
08
10
20
40
80
FE
ENDCHAR
STARTCHAR c51
ENCODING -1 51
SWIDTH 290 0
DWIDTH 9 0
BBX 8 13 0 0
BITMAP
3E
01
01
01
02
04
7C
02
02
02
04
08
F0
ENDCHAR
STARTCHAR c52
ENCODING -1 52
SWIDTH 290 0
DWIDTH 9 0
BBX 9 13 0 0
BITMAP
0200
0600
0A00
1200
2400
2400
4400
8400
FF80
0800
0800
0800
0800
ENDCHAR
STARTCHAR c53
ENCODING -1 53
SWIDTH 290 0
DWIDTH 9 0
BBX 8 13 1 0
BITMAP
3F
20
20
40
40
7C
02
02
02
02
04
18
E0
ENDCHAR
STARTCHAR c54
ENCODING -1 54
SWIDTH 290 0
DWIDTH 9 0
BBX 8 13 1 0
BITMAP
03
0C
10
20
40
40
9C
A2
C2
82
84
88
70
ENDCHAR
STARTCHAR c55
ENCODING -1 55
SWIDTH 290 0
DWIDTH 9 0
BBX 8 13 1 0
BITMAP
FF
01
02
04
04
08
10
10
20
40
40
80
80
ENDCHAR
STARTCHAR c56
ENCODING -1 56
SWIDTH 290 0
DWIDTH 9 0
BBX 9 13 0 0
BITMAP
0F00
1080
2080
2080
2100
1200
1C00
2400
4200
8200
8200
8400
7800
ENDCHAR
STARTCHAR c57
ENCODING -1 57
SWIDTH 290 0
DWIDTH 9 0
BBX 8 13 0 0
BITMAP
0E
11
21
41
43
45
39
02
02
04
08
30
C0
ENDCHAR
STARTCHAR c58
ENCODING -1 58
SWIDTH 129 0
DWIDTH 4 0
BBX 2 9 1 0
BITMAP
40
40
00
00
00
00
00
80
80
ENDCHAR
STARTCHAR c59
ENCODING -1 59
SWIDTH 129 0
DWIDTH 4 0
BBX 3 12 0 -3
BITMAP
20
20
00
00
00
00
00
40
40
40
80
80
ENDCHAR
STARTCHAR c60
ENCODING -1 60
SWIDTH 322 0
DWIDTH 10 0
BBX 10 9 0 0
BITMAP
00C0
0300
0C00
3000
C000
6000
1800
0600
0180
ENDCHAR
STARTCHAR c61
ENCODING -1 61
SWIDTH 322 0
DWIDTH 10 0
BBX 9 4 1 3
BITMAP
7F80
0000
0000
FF00
ENDCHAR
STARTCHAR c62
ENCODING -1 62
SWIDTH 322 0
DWIDTH 10 0
BBX 10 9 0 0
BITMAP
6000
1800
0600
0180
00C0
0300
0C00
3000
C000
ENDCHAR
STARTCHAR c63
ENCODING -1 63
SWIDTH 258 0
DWIDTH 8 0
BBX 6 13 2 0
BITMAP
F8
04
04
04
08
10
20
40
40
00
00
80
80
ENDCHAR
STARTCHAR c64
ENCODING -1 64
SWIDTH 451 0
DWIDTH 14 0
BBX 12 14 1 -1
BITMAP
03C0
0C20
1010
2390
4490
4890
8910
9110
9310
9520
9A20
82C0
4300
3800
ENDCHAR
STARTCHAR c65
ENCODING -1 65
SWIDTH 258 0
DWIDTH 8 0
BBX 7 12 0 0
BITMAP
06
06
0A
0A
12
12
3E
22
42
42
82
82
ENDCHAR
STARTCHAR c66
ENCODING -1 66
SWIDTH 290 0
DWIDTH 9 0
BBX 7 12 1 0
BITMAP
3C
22
22
22
44
7C
42
42
82
84
8C
F0
ENDCHAR
STARTCHAR c67
ENCODING -1 67
SWIDTH 290 0
DWIDTH 9 0
BBX 8 12 1 0
BITMAP
07
18
20
40
40
80
80
80
80
80
46
38
ENDCHAR
STARTCHAR c68
ENCODING -1 68
SWIDTH 354 0
DWIDTH 11 0
BBX 9 12 1 0
BITMAP
3E00
2100
2080
2080
4080
4080
4080
4100
8100
8200
8C00
F000
ENDCHAR
STARTCHAR c69
ENCODING -1 69
SWIDTH 258 0
DWIDTH 8 0
BBX 7 12 1 0
BITMAP
3E
20
20
20
40
7C
40
40
80
80
80
FC
ENDCHAR
STARTCHAR c70
ENCODING -1 70
SWIDTH 258 0
DWIDTH 8 0
BBX 7 12 1 0
BITMAP
3E
20
20
20
40
7C
40
40
80
80
80
80
ENDCHAR
STARTCHAR c71
ENCODING -1 71
SWIDTH 322 0
DWIDTH 10 0
BBX 8 12 1 0
BITMAP
07
18
20
40
40
81
81
81
81
82
42
3E
ENDCHAR
STARTCHAR c72
ENCODING -1 72
SWIDTH 354 0
DWIDTH 11 0
BBX 9 12 1 0
BITMAP
2080
2080
2080
2080
4100
7F00
4100
4100
8200
8200
8200
8200
ENDCHAR
STARTCHAR c73
ENCODING -1 73
SWIDTH 161 0
DWIDTH 5 0
BBX 3 12 1 0
BITMAP
20
20
20
20
40
40
40
40
80
80
80
80
ENDCHAR
STARTCHAR c74
ENCODING -1 74
SWIDTH 161 0
DWIDTH 5 0
BBX 4 12 0 0
BITMAP
10
10
10
10
20
20
20
20
40
40
40
C0
ENDCHAR
STARTCHAR c75
ENCODING -1 75
SWIDTH 290 0
DWIDTH 9 0
BBX 8 12 1 0
BITMAP
21
21
22
24
48
50
50
50
88
88
84
84
ENDCHAR
STARTCHAR c76
ENCODING -1 76
SWIDTH 193 0
DWIDTH 6 0
BBX 5 12 1 0
BITMAP
20
20
20
20
40
40
40
40
80
80
80
F8
ENDCHAR
STARTCHAR c77
ENCODING -1 77
SWIDTH 451 0
DWIDTH 14 0
BBX 13 12 0 0
BITMAP
0208
0618
0618
0A28
0A28
1248
2248
2288
4288
4308
8308
8208
ENDCHAR
STARTCHAR c78
ENCODING -1 78
SWIDTH 354 0
DWIDTH 11 0
BBX 9 12 1 0
BITMAP
3080
3080
3080
5080
4900
4900
4900
4900
8600
8600
8600
8600
ENDCHAR
STARTCHAR c79
ENCODING -1 79
SWIDTH 354 0
DWIDTH 11 0
BBX 9 12 1 0
BITMAP
0F00
1080
2080
4080
4080
8080
8080
8100
8100
8200
8400
7800
ENDCHAR
STARTCHAR c80
ENCODING -1 80
SWIDTH 258 0
DWIDTH 8 0
BBX 7 12 1 0
BITMAP
3C
22
22
22
44
78
40
40
80
80
80
80
ENDCHAR
STARTCHAR c81
ENCODING -1 81
SWIDTH 354 0
DWIDTH 11 0
BBX 9 15 1 -3
BITMAP
0F00
1080
2080
4080
4080
8080
8080
8100
8100
8200
8400
7800
0400
0200
0180
ENDCHAR
STARTCHAR c82
ENCODING -1 82
SWIDTH 290 0
DWIDTH 9 0
BBX 7 12 1 0
BITMAP
3C
22
22
22
44
78
50
48
84
84
82
82
ENDCHAR
STARTCHAR c83
ENCODING -1 83
SWIDTH 225 0
DWIDTH 7 0
BBX 7 12 0 0
BITMAP
1E
20
40
40
40
30
18
04
04
04
08
F0
ENDCHAR
STARTCHAR c84
ENCODING -1 84
SWIDTH 225 0
DWIDTH 7 0
BBX 7 12 0 0
BITMAP
FE
08
08
08
10
10
10
10
20
20
20
20
ENDCHAR
STARTCHAR c85
ENCODING -1 85
SWIDTH 354 0
DWIDTH 11 0
BBX 9 12 1 0
BITMAP
2080
2080
2080
2080
4100
4100
4100
4100
8200
8200
8400
7800
ENDCHAR
STARTCHAR c86
ENCODING -1 86
SWIDTH 258 0
DWIDTH 8 0
BBX 7 12 1 0
BITMAP
82
82
84
84
88
88
90
90
A0
A0
C0
C0
ENDCHAR
STARTCHAR c87
ENCODING -1 87
SWIDTH 483 0
DWIDTH 15 0
BBX 14 12 1 0
BITMAP
8304
8304
8508
8508
8910
8910
9120
9120
A140
A140
C180
C180
ENDCHAR
STARTCHAR c88
ENCODING -1 88
SWIDTH 290 0
DWIDTH 9 0
BBX 9 12 0 0
BITMAP
2080
2080
1100
1200
1400
0800
0800
1400
2400
4400
8200
8200
ENDCHAR
STARTCHAR c89
ENCODING -1 89
SWIDTH 258 0
DWIDTH 8 0
BBX 7 12 1 0
BITMAP
82
82
84
48
50
60
40
40
80
80
80
80
ENDCHAR
STARTCHAR c90
ENCODING -1 90
SWIDTH 225 0
DWIDTH 7 0
BBX 7 12 0 0
BITMAP
7E
02
04
04
08
10
10
20
40
40
80
FC
ENDCHAR
STARTCHAR c91
ENCODING -1 91
SWIDTH 193 0
DWIDTH 6 0
BBX 6 16 0 -3
BITMAP
1C
10
10
10
20
20
20
20
40
40
40
40
80
80
80
E0
ENDCHAR
STARTCHAR c92
ENCODING -1 92
SWIDTH 225 0
DWIDTH 7 0
BBX 2 12 2 0
BITMAP
80
80
80
80
80
80
40
40
40
40
40
40
ENDCHAR
STARTCHAR c93
ENCODING -1 93
SWIDTH 193 0
DWIDTH 6 0
BBX 6 16 0 -3
BITMAP
1C
04
04
04
08
08
08
08
10
10
10
10
20
20
20
E0
ENDCHAR
STARTCHAR c94
ENCODING -1 94
SWIDTH 290 0
DWIDTH 9 0
BBX 9 11 0 0
BITMAP
0200
0600
0B00
3500
4480
8480
0400
0800
0800
0800
0800
ENDCHAR
STARTCHAR c95
ENCODING -1 95
SWIDTH 129 0
DWIDTH 4 0
BBX 4 1 0 -1
BITMAP
F0
ENDCHAR
STARTCHAR c96
ENCODING -1 96
SWIDTH 225 0
DWIDTH 7 0
BBX 2 3 4 11
BITMAP
80
80
40
ENDCHAR
STARTCHAR c97
ENCODING -1 97
SWIDTH 225 0
DWIDTH 7 0
BBX 6 9 0 0
BITMAP
1C
64
04
04
38
48
88
98
EC
ENDCHAR
STARTCHAR c98
ENCODING -1 98
SWIDTH 258 0
DWIDTH 8 0
BBX 6 14 1 0
BITMAP
20
20
20
20
40
4C
54
64
44
84
88
88
90
E0
ENDCHAR
STARTCHAR c99
ENCODING -1 99
SWIDTH 225 0
DWIDTH 7 0
BBX 6 9 1 0
BITMAP
1C
20
40
40
80
80
88
90
E0
ENDCHAR
STARTCHAR c100
ENCODING -1 100
SWIDTH 258 0
DWIDTH 8 0
BBX 7 14 1 0
BITMAP
02
02
02
02
04
1C
24
44
44
84
88
98
A8
C8
ENDCHAR
STARTCHAR c101
ENCODING -1 101
SWIDTH 225 0
DWIDTH 7 0
BBX 6 9 1 0
BITMAP
1C
24
44
78
80
80
88
90
E0
ENDCHAR
STARTCHAR c102
ENCODING -1 102
SWIDTH 161 0
DWIDTH 5 0
BBX 5 19 0 -5
BITMAP
08
10
10
10
10
F8
20
20
20
20
40
40
40
40
40
80
80
80
80
ENDCHAR
STARTCHAR c103
ENCODING -1 103
SWIDTH 258 0
DWIDTH 8 0
BBX 8 14 0 -5
BITMAP
0F
12
22
22
24
38
20
40
70
2C
42
82
84
78
ENDCHAR
STARTCHAR c104
ENCODING -1 104
SWIDTH 290 0
DWIDTH 9 0
BBX 7 14 1 0
BITMAP
20
20
20
20
40
4E
52
62
42
42
84
84
84
84
ENDCHAR
STARTCHAR c105
ENCODING -1 105
SWIDTH 129 0
DWIDTH 4 0
BBX 3 13 1 0
BITMAP
20
20
00
00
40
40
40
40
40
80
80
80
80
ENDCHAR
STARTCHAR c106
ENCODING -1 106
SWIDTH 129 0
DWIDTH 4 0
BBX 4 18 0 -5
BITMAP
10
10
00
00
20
20
20
20
20
40
40
40
40
40
80
80
80
80
ENDCHAR
STARTCHAR c107
ENCODING -1 107
SWIDTH 225 0
DWIDTH 7 0
BBX 6 14 1 0
BITMAP
20
20
20
20
40
44
48
50
60
60
90
90
88
88
ENDCHAR
STARTCHAR c108
ENCODING -1 108
SWIDTH 129 0
DWIDTH 4 0
BBX 3 14 1 0
BITMAP
20
20
20
20
40
40
40
40
40
40
80
80
80
80
ENDCHAR
STARTCHAR c109
ENCODING -1 109
SWIDTH 451 0
DWIDTH 14 0
BBX 12 9 1 0
BITMAP
4E70
5290
6310
4210
4210
8420
8420
8420
8420
ENDCHAR
STARTCHAR c110
ENCODING -1 110
SWIDTH 290 0
DWIDTH 9 0
BBX 7 9 1 0
BITMAP
4E
52
62
42
42
84
84
84
84
ENDCHAR
STARTCHAR c111
ENCODING -1 111
SWIDTH 258 0
DWIDTH 8 0
BBX 6 9 1 0
BITMAP
1C
24
44
44
84
88
88
90
E0
ENDCHAR
STARTCHAR c112
ENCODING -1 112
SWIDTH 258 0
DWIDTH 8 0
BBX 7 14 0 -5
BITMAP
26
2A
32
22
42
44
44
48
70
40
80
80
80
80
ENDCHAR
STARTCHAR c113
ENCODING -1 113
SWIDTH 258 0
DWIDTH 8 0
BBX 6 14 1 -5
BITMAP
1C
24
44
44
84
88
98
A8
C8
08
10
10
10
10
ENDCHAR
STARTCHAR c114
ENCODING -1 114
SWIDTH 161 0
DWIDTH 5 0
BBX 4 9 1 0
BITMAP
50
50
60
40
40
80
80
80
80
ENDCHAR
STARTCHAR c115
ENCODING -1 115
SWIDTH 193 0
DWIDTH 6 0
BBX 6 9 0 0
BITMAP
3C
40
40
20
30
10
08
08
F0
ENDCHAR
STARTCHAR c116
ENCODING -1 116
SWIDTH 161 0
DWIDTH 5 0
BBX 5 13 0 0
BITMAP
10
10
10
20
F8
20
20
20
20
40
40
48
70
ENDCHAR
STARTCHAR c117
ENCODING -1 117
SWIDTH 290 0
DWIDTH 9 0
BBX 7 9 1 0
BITMAP
42
42
42
42
84
84
8C
94
E4
ENDCHAR
STARTCHAR c118
ENCODING -1 118
SWIDTH 225 0
DWIDTH 7 0
BBX 6 9 1 0
BITMAP
84
84
88
88
90
90
A0
C0
80
ENDCHAR
STARTCHAR c119
ENCODING -1 119
SWIDTH 419 0
DWIDTH 13 0
BBX 11 9 2 0
BITMAP
8820
8820
8840
8880
8880
9900
AA00
CC00
8800
ENDCHAR
STARTCHAR c120
ENCODING -1 120
SWIDTH 258 0
DWIDTH 8 0
BBX 8 9 0 0
BITMAP
11
11
12
14
18
28
48
88
88
ENDCHAR
STARTCHAR c121
ENCODING -1 121
SWIDTH 225 0
DWIDTH 7 0
BBX 7 14 0 -5
BITMAP
42
42
44
44
48
48
50
60
40
40
40
80
80
80
ENDCHAR
STARTCHAR c122
ENCODING -1 122
SWIDTH 225 0
DWIDTH 7 0
BBX 7 9 0 0
BITMAP
7E
04
08
08
10
20
20
40
FC
ENDCHAR
STARTCHAR c123
ENCODING -1 123
SWIDTH 193 0
DWIDTH 6 0
BBX 6 16 0 -3
BITMAP
0C
10
10
10
20
20
20
C0
40
40
40
40
80
80
80
60
ENDCHAR
STARTCHAR c124
ENCODING -1 124
SWIDTH 161 0
DWIDTH 5 0
BBX 4 16 1 -3
BITMAP
10
10
10
10
20
20
20
20
40
40
40
40
80
80
80
80
ENDCHAR
STARTCHAR c125
ENCODING -1 125
SWIDTH 193 0
DWIDTH 6 0
BBX 6 16 0 -3
BITMAP
18
04
04
04
08
08
08
08
0C
10
10
10
20
20
20
C0
ENDCHAR
STARTCHAR c126
ENCODING -1 126
SWIDTH 354 0
DWIDTH 11 0
BBX 10 4 1 3
BITMAP
3840
4840
8480
8700
ENDCHAR
STARTCHAR c128
ENCODING -1 128
SWIDTH 258 0
DWIDTH 8 0
BBX 8 13 0 0
BITMAP
11
06
06
0A
0A
12
12
3E
22
42
42
82
82
ENDCHAR
STARTCHAR c129
ENCODING -1 129
SWIDTH 354 0
DWIDTH 11 0
BBX 10 13 1 0
BITMAP
2040
0F00
1080
2080
4080
4080
8080
8080
8100
8100
8200
8400
7800
ENDCHAR
STARTCHAR c130
ENCODING -1 130
SWIDTH 354 0
DWIDTH 11 0
BBX 9 14 1 0
BITMAP
0900
0000
2080
2080
2080
2080
4100
4100
4100
4100
8200
8200
8400
7800
ENDCHAR
STARTCHAR c131
ENCODING -1 131
SWIDTH 225 0
DWIDTH 7 0
BBX 7 12 0 0
BITMAP
12
00
00
1C
64
04
04
38
48
88
98
EC
ENDCHAR
STARTCHAR c132
ENCODING -1 132
SWIDTH 258 0
DWIDTH 8 0
BBX 7 12 1 0
BITMAP
12
00
00
1C
24
44
44
84
88
88
90
E0
ENDCHAR
STARTCHAR c133
ENCODING -1 133
SWIDTH 290 0
DWIDTH 9 0
BBX 7 12 1 0
BITMAP
12
00
00
42
42
42
42
84
84
8C
94
E4
ENDCHAR
STARTCHAR c134
ENCODING -1 134
SWIDTH 225 0
DWIDTH 7 0
BBX 6 14 0 0
BITMAP
0C
14
24
00
00
1C
64
04
04
38
48
88
98
EC
ENDCHAR
STARTCHAR c135
ENCODING -1 135
SWIDTH 225 0
DWIDTH 7 0
BBX 6 14 1 0
BITMAP
0C
14
24
00
00
1C
24
44
78
80
80
88
90
60
ENDCHAR
STARTCHAR c136
ENCODING -1 136
SWIDTH 129 0
DWIDTH 4 0
BBX 4 14 0 0
BITMAP
30
50
90
00
00
20
20
20
20
20
40
40
40
40
ENDCHAR
STARTCHAR c137
ENCODING -1 137
SWIDTH 258 0
DWIDTH 8 0
BBX 7 14 1 0
BITMAP
06
0A
12
00
00
1C
24
44
44
84
88
88
90
E0
ENDCHAR
STARTCHAR c138
ENCODING -1 138
SWIDTH 290 0
DWIDTH 9 0
BBX 7 14 1 0
BITMAP
06
0A
12
00
00
42
42
42
42
84
84
8C
94
E4
ENDCHAR
STARTCHAR c139
ENCODING -1 139
SWIDTH 225 0
DWIDTH 7 0
BBX 6 14 0 0
BITMAP
08
08
04
00
00
1C
64
04
04
38
48
88
98
EC
ENDCHAR
STARTCHAR c140
ENCODING -1 140
SWIDTH 225 0
DWIDTH 7 0
BBX 6 14 1 0
BITMAP
08
08
04
00
00
1C
24
44
78
80
80
88
90
60
ENDCHAR
STARTCHAR c141
ENCODING -1 141
SWIDTH 129 0
DWIDTH 4 0
BBX 3 14 1 0
BITMAP
40
40
20
00
00
40
40
40
40
40
80
80
80
80
ENDCHAR
STARTCHAR c142
ENCODING -1 142
SWIDTH 258 0
DWIDTH 8 0
BBX 6 14 1 0
BITMAP
08
08
04
00
00
1C
24
44
44
84
88
88
90
E0
ENDCHAR
STARTCHAR c143
ENCODING -1 143
SWIDTH 290 0
DWIDTH 9 0
BBX 7 14 1 0
BITMAP
08
08
04
00
00
42
42
42
42
84
84
8C
94
E4
ENDCHAR
STARTCHAR c144
ENCODING -1 144
SWIDTH 225 0
DWIDTH 7 0
BBX 6 14 1 0
BITMAP
04
08
10
00
00
1C
24
44
78
80
80
88
90
60
ENDCHAR
STARTCHAR c145
ENCODING -1 145
SWIDTH 225 0
DWIDTH 7 0
BBX 6 12 1 0
BITMAP
14
00
00
1C
24
44
78
80
80
88
90
60
ENDCHAR
STARTCHAR c146
ENCODING -1 146
SWIDTH 129 0
DWIDTH 4 0
BBX 3 12 1 0
BITMAP
A0
00
00
40
40
40
40
40
80
80
80
80
ENDCHAR
STARTCHAR c147
ENCODING -1 147
SWIDTH 225 0
DWIDTH 7 0
BBX 6 13 1 -4
BITMAP
1C
20
40
40
80
80
88
90
E0
00
60
20
40
ENDCHAR
STARTCHAR c148
ENCODING -1 148
SWIDTH 225 0
DWIDTH 7 0
BBX 7 14 0 0
BITMAP
02
04
08
00
00
1C
64
04
04
38
48
88
98
EC
ENDCHAR
STARTCHAR c149
ENCODING -1 149
SWIDTH 290 0
DWIDTH 9 0
BBX 8 14 1 0
BITMAP
19
2A
4C
00
00
4E
52
62
42
42
84
84
84
84
ENDCHAR
STARTCHAR c155
ENCODING -1 155
SWIDTH 290 0
DWIDTH 9 0
BBX 9 1 0 4
BITMAP
FF80
ENDCHAR
STARTCHAR c159
ENCODING -1 159
SWIDTH 290 0
DWIDTH 9 0
BBX 0 0 0 0
BITMAP
ENDCHAR
ENDFONT
